<svg height="60" width="120" xmlns="http://www.w3.org/2000/svg" xmlns:xlink="http://www.w3.org/1999/xlink"><radialGradient id="a" cx="69.47323853507" cy="19.59787596846" gradientUnits="userSpaceOnUse" r="4.63489932523"><stop offset="0" stop-color="#fff"/><stop offset="1" stop-color="#b9b9b0"/></radialGradient><radialGradient id="b" cx="18.557627" cy="22.300018" gradientTransform="matrix(1.77275 0 0 1.29668 -16.3404 -6.615959)" gradientUnits="userSpaceOnUse" r="19.2292"><stop offset="0" stop-color="#857c63"/><stop offset="1" stop-color="#221f19"/></radialGradient><linearGradient id="c" gradientUnits="userSpaceOnUse" x1="28.513587" x2="17.376654" xlink:href="#j" y1="28.429326" y2="30.639035"/><linearGradient id="d" gradientUnits="userSpaceOnUse" x1="26.162951" x2="24.328892" xlink:href="#j" y1="30.543303" y2="30.985245"/><radialGradient id="e" cx="6.024219" cy="25.271027" gradientTransform="matrix(.916159 .09318684 -.108765 1.069309 3.253668 -3.029272)" gradientUnits="userSpaceOnUse" r="4.831029"><stop offset="0" stop-color="#5b676b"/><stop offset="1" stop-color="#141718"/></radialGradient><linearGradient id="f" gradientUnits="userSpaceOnUse" x1="14.96875" x2="39.524544" xlink:href="#i" y1="19.110678" y2="46.98568"/><radialGradient id="g" cx="23" cy="33.9375" gradientTransform="matrix(1 0 0 .284247 0 24.29088)" gradientUnits="userSpaceOnUse" r="18.25" xlink:href="#j"/><linearGradient id="h" gradientUnits="userSpaceOnUse" x1="6.305153" x2="5.984629" xlink:href="#i" y1="23.362427" y2="31.57"/><linearGradient id="i"><stop offset="0" stop-color="#fff"/><stop offset="1" stop-color="#fff" stop-opacity="0"/></linearGradient><linearGradient id="j"><stop offset="0"/><stop offset="1" stop-opacity="0"/></linearGradient><linearGradient id="k" gradientUnits="userSpaceOnUse" x1="-12.287321" x2="-21.551067" y1="21.117612" y2="13.060211"><stop offset="0" stop-color="#6e3d09"/><stop offset=".24242425" stop-color="#ea8113"/><stop offset=".62121212" stop-color="#5c3307"/><stop offset="1" stop-color="#e07c12"/></linearGradient><linearGradient id="l" gradientUnits="userSpaceOnUse" x1="-27.012215" x2="-23.297619" y1="28.198475" y2="31.635975"><stop offset="0" stop-color="#bdbdbd"/><stop offset=".33333334" stop-color="#e2e2e2"/><stop offset=".66666669" stop-color="#a3a3a3"/><stop offset="1" stop-color="#ddd"/></linearGradient><radialGradient id="m" cx="15.415101" cy="35.356506" gradientTransform="matrix(1.572694 0 0 1.532639 -55.36682 -21.35823)" gradientUnits="userSpaceOnUse" r="7.579156"><stop offset="0" stop-color="#696969"/><stop offset="1"/></radialGradient><linearGradient id="n" gradientTransform="matrix(.755165 .395143 -.395143 .755165 -25.91245 6.532586)" gradientUnits="userSpaceOnUse" x1="13.236155" x2="7.752109" xlink:href="#i" y1="37.752247" y2="42.282146"/><linearGradient id="o" gradientUnits="userSpaceOnUse" x1="359.43173" x2="322.49408" xlink:href="#i" y1="472.72525" y2="671.6203"/><linearGradient id="p" gradientUnits="userSpaceOnUse" x1="340.96289" x2="424.14676" y1="621.59332" y2="382.91934"><stop offset="0" stop-color="#4d4d4d"/><stop offset="1" stop-color="#4d4d4d" stop-opacity="0"/></linearGradient><linearGradient id="q" gradientUnits="userSpaceOnUse" x1="393.52802" x2="441.83109" xlink:href="#j" y1="516.7663" y2="218.42375"/><g transform="matrix(1.0146519 0 0 1.0146519 4.259516 1.04451)"><path d="m41.25 33.9375a18.25 5.1875 0 1 1 -36.5 0 18.25 5.1875 0 1 1 36.5 0z" fill="url(#g)" fill-rule="evenodd" transform="matrix(1 0 0 1.53012 .125 -19.99096)"/><path d="m10.374369 12.467884s2.874509 5.927634 9.599242 5.760407c14.092515-.353553 16.563709-7.70495 16.917262-8.7656106.353554-1.0606602.894534-.8999979 1.019607.080267 4.596194 41.7192996-31.8969312 23.8191756-33.1929656 16.7135196 7.2478446-2.12132 5.4800776-6.187185 5.4800776-6.187185z" fill="url(#b)" fill-rule="evenodd" stroke="#2e3436" stroke-miterlimit="10"/><path d="m15.73779 30.066049c6.7389 1.347837 10.170691.09809 12.179175-1.452776-.53033-.68501-1.43631-1.436311-1.43631-1.436311s2.353317.653942 3.18198 1.723573c.82629 1.066568.306808 1.723707.09056 3.08837-.481411-1.198599-1.379981-1.648092-1.501634-2.124332-1.806268 2.496927-6.306442 2.3932-12.513772.201476z" fill="url(#c)" fill-rule="evenodd"/><path d="m36.96875 11.84375c-.561978.926895-1.406492 2.033166-2.6875 3.09375-2.631918 2.179042-7.050563 4.162347-14.28125 4.34375-4.224373.105049-6.952741-1.934149-8.625-3.75l-.125 4.46875c.136107.418802.415455 1.390498-.0625 2.71875-.514314 1.429296-2.154514 2.891363-4.96875 4 .2503304.522033.4954845 1.04362 1.25 1.78125 1.0279503 1.004945 2.4570333 2.088049 4.15625 3.0625 3.398433 1.948902 7.801583 3.493212 11.90625 3.5625 4.104667.06929 7.857126-1.23455 10.4375-5 2.378744-3.471218 3.682473-9.347943 3-18.28125z" fill="none" opacity=".185393" stroke="url(#f)" stroke-miterlimit="10"/><path d="m72.655224 21.837049a3.1819806 3.1819806 0 1 1 -6.363961 0 3.1819806 3.1819806 0 1 1 6.363961 0z" fill="url(#a)" fill-rule="evenodd" stroke="#888a85" stroke-miterlimit="10" stroke-width=".782608" transform="matrix(1.277778 0 0 1.277778 -75.12661 -6.507784)"/><path d="m10.429825 27.228739a4.331029 6.098796 0 1 1 -8.662058 0 4.331029 6.098796 0 1 1 8.662058 0z" fill="url(#e)" fill-rule="evenodd" stroke="#000" stroke-miterlimit="10" transform="matrix(.810984 -.585069 .585069 .810984 -14.77791 6.947121)"/><path d="m24.041631 21.837049a2.2980971 2.2980971 0 1 1 -4.596194 0 2.2980971 2.2980971 0 1 1 4.596194 0z" fill="#2e3436" fill-rule="evenodd" stroke="#000" stroke-miterlimit="10" stroke-width="1.173913" transform="matrix(.851852 0 0 .851852 -3.926759 3.395528)"/><path d="m6.09375 22.15625c-.7982492 0-1.5531304.446171-2.1875 1.34375s-1.09375 2.234204-1.09375 3.71875.4593804 2.821171 1.09375 3.71875 1.3892511 1.34375 2.1875 1.34375c.7982492 0 1.5772839-.476389 2.21875-1.375s1.09375-2.206186 1.09375-3.6875-.4522838-2.788889-1.09375-3.6875-1.4205011-1.375-2.21875-1.375z" fill="none" opacity=".280899" stroke="url(#h)" stroke-miterlimit="10" transform="matrix(.800389 -.599481 .599481 .800389 -15.2744 7.32784)"/><g fill-rule="evenodd"><path d="m5.833631 23.251263a1.767767 2.1213202 0 1 1 -3.5355339 0 1.767767 2.1213202 0 1 1 3.5355339 0z" fill="#fff"/><path d="m23.157747 20.953165a1.767767 1.767767 0 1 1 -3.535534 0 1.767767 1.767767 0 1 1 3.535534 0z" fill="#fff" transform="matrix(.766666 0 0 .766666 -2.556414 5.029841)"/><path d="m72.655224 21.837049a3.1819806 3.1819806 0 1 1 -6.363961 0 3.1819806 3.1819806 0 1 1 6.363961 0z" fill="url(#a)" stroke="#888a85" stroke-miterlimit="10" stroke-width=".666666" transform="matrix(1.5 0 0 1.5 -82.16821 -10.91852)"/><path d="m24.041631 21.837049a2.2980971 2.2980971 0 1 1 -4.596194 0 2.2980971 2.2980971 0 1 1 4.596194 0z" fill="#2e3436" stroke="#000" stroke-miterlimit="10" transform="translate(1.414216 .707108)"/><path d="m23.157747 20.953165a1.767767 1.767767 0 1 1 -3.535534 0 1.767767 1.767767 0 1 1 3.535534 0z" fill="#fff" transform="matrix(.9 0 0 .9 3.022883 2.625648)"/></g><g transform="matrix(-.114852 -.389864 .389864 -.114852 24.71507 29.68942)"><g stroke-linecap="round" stroke-width="2.460453"><path d="m-23.364209 23.568336 3.710098 3.469175c8.346983-6.380847 17.0940772-20.0993736 17.0940772-20.0993736 1.97631487-2.2424123-.1169199-3.7504826-2.1649066-2.3979188 0 0-12.9703626 10.1148664-18.6392686 19.0281174z" fill="url(#k)" stroke="#673907"/><path d="m-30.449715 32.813894 2.24632 1.93382 8.492766-7.367031.275061-.705828 1.094405-.01782c-.4375-1.5625-2.941514-4.383455-4.816514-4.383455l.08202 1.090075-.669991.380027-6.704066 9.070207z" fill="url(#l)" stroke="#888a85"/><path d="m-23.801371 28.376767-4.364933 5.266471" fill="none" stroke="#fff" stroke-linejoin="round"/></g><path d="m-45.341208 42.769835c10.443958 0 18.370039 1.24373 19.870605-6.354738 1.209249-6.123314-7.210534-9.057368-11.38287-3.590861-4.019277 5.265971-8.487735 9.945599-8.487735 9.945599z" fill="url(#m)"/><path d="m8.8749989 37.75a1.2499999 1.2499999 0 1 1 -2.4999997 0 1.2499999 1.2499999 0 1 1 2.4999997 0z" fill="#fff" opacity=".527778" transform="matrix(2.069903 0 0 2.069903 -44.75012 -41.50978)"/><path d="m8.8749989 37.75a1.2499999 1.2499999 0 1 1 -2.4999997 0 1.2499999 1.2499999 0 1 1 2.4999997 0z" fill="#fff" transform="matrix(1.396669 0 0 1.396669 -32.05526 -25.87664)"/><path d="m-38.543723 40.909242s3.72152.0943 6.116538-1.411995c.847351-.532923 1.515774.649985.493819 1.087367-2.207394.944732-6.610357.324628-6.610357.324628z" fill="url(#n)" opacity=".427778"/></g><path d="m23.003067 31.736544c1.497372.143092 2.849629-.272213 3.411893-.474047.09822-.555386.536552-1.621257 2.046088-1.691468l-.53033-.928077s-1.966641 1.347921-4.065864 1.745669z" fill="url(#d)" fill-rule="evenodd"/></g><g fill-rule="evenodd" transform="matrix(.144841 0 0 .144841 25.77557 -38.48872)"><path d="m308.82364 339.18807-2.1875 12.4063-1.2812 7.3124h-5.2813-74.9062-12.5938l-2.1875 12.4063-23.5625 133.65631-.9687 5.5937h-.0313l-2.1875 12.4063-5.4062 30.6874-3.0938 17.5938h17.875 74.9063 12.5937l2.1875-12.4062 1.2813-7.3126h5.2812 27.6563 12.59369 5.2813 27.6562 1.7188 10.875 7 27.6562 1.7188 10.875 7 27.6562l-.375 2.125-3.0937 17.5938h17.875 27.6562 12.5938l2.1875-12.4062 1.2812-7.3126h34.65631 12.59366l2.1875-12.4062 28.6875-162.62501 3.0938-17.5938h-17.875-74.90627-12.5937-5.2813-122.1562l.375-2.125 3.0937-17.5937h-17.875-27.6562z" fill="url(#q)"/><path d="m321.40625 354.1875-5.40625 30.65625h27.65625l5.40625-30.65625zm-96.25 19.71875-23.5625 133.65625h47.25l-3.1875 18h-47.25l-5.40625 30.6875h74.90625l32.15625-182.34375zm138.3125 0-28.65625 162.625h27.65625l23.25-131.96875h19.59375l-23.25 131.96875h27.65625l23.25-131.96875h19.59375l-23.25 131.96875h27.65625l28.65625-162.625zm140.03125 0-32.15625 182.34375h27.65625l3.5-19.71875h47.25l28.65625-162.625zm-189.625 23.03125-24.59375 139.59375h27.65625l24.59375-139.59375zm-66.46875 7.625h19.59375l-12.75 72.3125h-19.59375zm278.34375 0h19.59375l-17.84375 101.28125h-19.59375z" fill="url(#o)"/><path d="m321.40625 354.1875-5.40625 30.65625h27.65625l5.40625-30.65625zm-96.25 19.71875-14.9375 84.6875c8.5676 2.69019 17.37165 5.13136 26.375 7.34375l10.8125-61.375h19.59375l-11.5625 65.59375c8.78627 1.76913 17.73395 3.32538 26.84375 4.625l17.78125-100.875zm138.3125 0-18.65625 105.84375c3.20623.0588 6.42669.0937 9.65625.0937 6.05363 0 12.0617-.10734 18.03125-.3125l13.21875-74.96875h19.59375l-13.03125 73.875c9.53861-.69474 18.93011-1.64209 28.1875-2.84375l12.5-71.03125h19.59375l-11.96875 68c9.75885-1.68485 19.33914-3.64722 28.6875-5.875l16.34375-92.78125h-122.15625zm140.03125 0-15.5 87.875c10.082-2.87593 19.87975-6.04554 29.34375-9.53125l8.40625-47.6875h19.59375l-6.90625 39.1875c10.63666-4.66494 20.76236-9.73937 30.34375-15.15625l9.625-54.6875zm-189.625 23.03125-14.09375 80c8.96908.95556 18.06869 1.67294 27.28125 2.15625l14.46875-82.15625z" fill="url(#p)"/></g></svg>